<?xml version="1.0" encoding="utf-8"?>
<!-- Generator: Adobe Illustrator 19.2.1, SVG Export Plug-In . SVG Version: 6.00 Build 0)  -->
<svg version="1.1" id="Layer_1" xmlns="http://www.w3.org/2000/svg" xmlns:xlink="http://www.w3.org/1999/xlink" x="0px" y="0px"
	 viewBox="0 0 307.1 37.4" style="enable-background:new 0 0 307.1 37.4;" xml:space="preserve">
<style type="text/css">
	.st0{fill:#EE3230;}
	.st1{fill:#009ACB;}
	.st2{font-family:'Montserrat-Bold';}
	.st3{font-size:26.4429px;}
</style>
<g>
	<g>
		<path class="st0" d="M22.8,13.9c-0.2-1.3-0.6-2.5-1.3-3.5c-1-1.4-2.6-2.1-4.8-2.1c-3.1,0-5.2,1.5-6.3,4.6
			c-0.6,1.6-0.9,3.8-0.9,6.4c0,2.6,0.3,4.6,0.9,6.2c1.1,2.9,3.1,4.4,6.2,4.4c2.1,0,3.7-0.6,4.6-1.7c0.9-1.2,1.4-2.6,1.6-4.5h9.3
			c-0.2,2.8-1.2,5.4-3,7.9c-2.9,4-7.1,6-12.7,6c-5.6,0-9.7-1.7-12.4-5c-2.6-3.3-4-7.6-4-12.9c0-6,1.5-10.6,4.4-14s7-5,12.1-5
			c4.4,0,8,1,10.7,2.9c2.8,2,4.4,5.4,4.9,10.4H22.8z"/>
	</g>
	<g>
		<path class="st1" d="M44.7,23.5c0.2,1.3,0.6,2.5,1.3,3.5c1,1.4,2.6,2.1,4.8,2.1c3.1,0,5.2-1.5,6.3-4.6c0.6-1.6,0.9-3.8,0.9-6.4
			c0-2.6-0.3-4.6-0.9-6.2C56,9.1,54,7.6,51,7.6c-2.1,0-3.7,0.6-4.6,1.7c-0.9,1.2-1.4,2.6-1.6,4.5h-9.3c0.2-2.8,1.2-5.4,3-7.9
			c2.9-4,7.1-6,12.7-6c5.6,0,9.7,1.7,12.4,5c2.6,3.3,4,7.6,4,12.9c0,6-1.5,10.6-4.4,14c-2.9,3.3-7,5-12.1,5c-4.4,0-8-1-10.7-2.9
			c-2.8-2-4.4-5.4-4.9-10.4H44.7z"/>
	</g>
</g>
<text transform="matrix(1 0 0 1 72.8984 28.5237)" class="st2 st3">ELASTIC CODERS</text>
</svg>
